<?xml version="1.0" encoding="UTF-8"?>
<svg width="193px" height="35px" viewBox="0 0 193 35" version="1.1" xmlns="http://www.w3.org/2000/svg" xmlns:xlink="http://www.w3.org/1999/xlink">
    <!-- Generator: Sketch 64 (93537) - https://sketch.com -->
    <title>buzzfeed_logo</title>
    <desc>Created with Sketch.</desc>
    <g id="Page-4" stroke="none" stroke-width="1" fill="none" fill-rule="evenodd">
        <g id="Desktop-HD" transform="translate(-596.000000, -10293.000000)" fill="#0D0C22" fill-rule="nonzero">
            <g id="buzzfeed_logo" transform="translate(596.000000, 10293.000000)">
                <path d="M0,0.0200013177 C5.37429534,0.0271714091 10.7507214,-0.0554405143 16.1224294,0.0706595726 C20.2631877,0.167923422 23.5075197,3.04842973 24.2059407,6.9829395 C24.9964394,11.4368133 22.7400024,15.2397675 19.2590077,16.2602585 C19.1705827,16.2861331 19.0985946,16.370148 18.9797307,16.4550979 C22.2977249,17.4278924 24.2783853,19.6771189 24.8358741,23.0467501 C25.7554338,28.6066884 22.7611575,33.1754395 17.1039324,33.821683 C15.8492402,33.964929 14.5752192,33.9611881 13.3098735,33.9678905 C8.87340115,33.9920507 4.43677667,33.9912712 0,34 C0,22.6732818 0,11.3467195 0,0.0200013177 Z M7.144775,27.5127818 C7.23700493,27.5452031 7.32893046,27.6056813 7.420856,27.6058371 C9.64776723,27.609578 11.8786356,27.6903195 14.1006765,27.5824565 C16.4000324,27.4706966 17.7671963,26.0234291 17.8282264,23.8906387 C17.8895609,21.7477166 16.6266501,20.2020942 14.3746268,19.9252664 C12.951303,19.7502226 11.4972358,19.8303406 10.0568663,19.8097656 C9.10245401,19.7962047 8.14758516,19.8072716 7.144775,19.8072716 L7.144775,27.5127818 Z M7.09607273,13.4846538 C9.17200694,13.4846538 11.1430791,13.4882388 13.1141512,13.4815363 C13.4934201,13.4801334 13.8813641,13.4834067 14.2502838,13.4073414 C15.6421033,13.1211613 16.6902675,12.3902795 17.0547735,10.9045119 C17.6360046,8.53573192 16.1618479,6.48929428 13.7687402,6.36787035 C12.6560455,6.31160072 11.538785,6.35228319 10.4235031,6.35119209 C9.34200829,6.34978925 8.26036135,6.35088034 7.1450794,6.35088034 C7.12301118,6.59622217 7.09789907,6.74585886 7.09774688,6.89549555 C7.09515957,9.04730235 7.09607273,11.1991092 7.09607273,13.4846538 Z" id="Shape"></path>
                <path d="M130.060954,35 C129.20391,34.8393234 128.33786,34.7161954 127.491218,34.5117122 C120.862319,32.9107348 117.4846,27.1612657 118.063882,20.8086728 C118.549074,15.4894479 121.20995,11.6006672 126.278623,9.8003695 C133.354832,7.28680535 141.561033,10.6804142 142.77192,20.1681567 C142.931839,21.4216533 142.923921,22.6968967 143,24.0746165 L133.799811,24.0746165 L124.725696,24.0746165 C125.14925,26.4121717 126.318992,28.0517929 128.35882,28.923389 C131.673347,30.339909 134.778427,29.6338394 137.706041,27.7351332 C137.879003,27.6229568 138.038612,27.4896593 138.20676,27.369191 C138.223373,27.3573007 138.255977,27.3676265 138.373201,27.3676265 C139.268906,28.6960638 140.193644,30.0679948 141.232811,31.6096767 C140.290216,32.2021619 139.420596,32.8442425 138.470705,33.3253336 C136.723389,34.2100719 134.844723,34.6791162 132.892618,34.8429219 C132.670437,34.8615397 132.453693,34.946024 132.234464,35 L130.060954,35 Z M136.692337,19.5850587 C136.819497,16.5218773 133.923245,14.182601 130.256274,14.3284147 C127.205846,14.4496653 124.494356,17.0525637 124.81994,19.5850587 L136.692337,19.5850587 Z" id="Shape"></path>
                <path d="M155.074429,35 C154.01604,34.7862069 152.940354,34.6351284 151.902066,34.3476728 C146.943594,32.9748298 143.523152,28.7666858 143.073118,23.6231382 C142.648328,18.7715816 144.049541,14.6599339 147.92999,11.5992665 C153.810345,6.96134668 165.366765,8.01342177 167.662279,18.9869387 C167.826835,19.7732971 167.923449,20.5802999 167.973002,21.3826108 C168.025829,22.2346555 167.984846,23.0926433 167.984846,24.0782502 L158.865744,24.0782502 L149.763939,24.0782502 C149.922417,25.449842 150.453326,26.5529022 151.333914,27.4651593 C153.349248,29.5527315 155.864169,29.945598 158.581512,29.4670266 C160.313394,29.1618982 161.911886,28.5017512 163.350341,27.2646597 C164.318505,28.6889571 165.259555,30.0735297 166.283662,31.5802476 C165.520101,32.0930698 164.828222,32.6354507 164.068244,33.0527149 C162.179288,34.0899324 160.134813,34.6371616 157.994038,34.8382867 C157.745179,34.8615896 157.502086,34.9446359 157.256188,35 C156.528779,35 155.801682,35 155.074429,35 Z M149.807415,19.5862477 L161.735176,19.5862477 C161.888511,16.618323 159.050245,14.2606551 155.483792,14.3305642 C152.319064,14.3923405 149.579438,16.9043712 149.807415,19.5862477 Z" id="Shape"></path>
                <path d="M36.812269,35 C36.0447981,34.8415685 35.2722639,34.7043334 34.5106235,34.5211469 C29.7928719,33.3873713 27.006072,29.8263752 27.0019293,24.931398 C26.9980934,20.2392564 27.0011621,15.5472696 27.0011621,10.855128 L27.0011621,10.0143888 L33.3779826,10.0143888 L33.3779826,10.9103624 C33.3779826,15.3447433 33.390871,19.7789695 33.3721521,24.2131957 C33.3635599,26.2245334 33.9736087,27.9278271 35.8637474,28.8030684 C37.9120752,29.7516463 40.0099618,29.7171441 41.9050103,28.3560873 C43.2929634,27.3593921 43.6854445,25.8340244 43.6883597,24.1949388 C43.6966451,19.786396 43.691275,15.3778531 43.691275,10.9694648 L43.691275,10 L49.9990507,10 C49.9990507,10.2781835 49.9992041,10.5736954 49.9992041,10.8690526 C49.9992041,15.509673 50.0013522,20.1502934 49.9985904,24.790759 C49.9953683,30.3906328 46.5389877,34.239869 40.9996034,34.8267156 C40.7261862,34.8556479 40.4584459,34.940743 40.1879438,34.9996906 C39.0626678,35 37.9373916,35 36.812269,35 Z" id="Shape"></path>
                <path d="M97,34 L97,0 L119.978614,0 L119.978614,3.29811873 C119.978614,4.02800973 119.931039,4.76212428 119.991989,5.48669676 C120.052484,6.20814068 119.770986,6.34814334 119.12591,6.34438908 C114.591989,6.3177964 110.057764,6.3303106 105.523692,6.3303106 L104.089599,6.3303106 L104.089599,13.4896873 L104.945343,13.4896873 C108.364973,13.4896873 111.784755,13.5098665 115.203929,13.4729495 C115.895212,13.4655974 116.056937,13.6917917 116.041129,14.3634916 C115.998722,16.1549001 116.026537,17.9480293 116.026537,19.8292271 L104.038072,19.8292271 L104.038072,34 C101.654758,34 99.3634025,34 97,34 Z" id="Shape"></path>
                <path d="M170,34.8984963 L170,33.9980136 C170,26.3379266 170,18.6779973 170.000331,11.0177529 C170.000331,10.0122296 170.001404,10.0034106 171.012183,10.013017 C174.510798,10.0460883 178.023676,9.89301568 181.504038,10.1697117 C186.463604,10.5637319 190.34521,12.8571438 192.182865,17.8836576 C194.050274,22.9912745 192.626902,28.8207895 188.832416,32.0143691 C186.596892,33.8958077 183.96626,34.8221175 181.132858,34.927158 C177.535005,35.0607028 173.929178,34.9692057 170.326878,34.9720404 C170.253716,34.9721978 170.1804,34.9403866 170,34.8984963 Z M176.079423,29.6450333 C177.301407,29.6450333 178.445473,29.6452083 179.589387,29.6450333 C183.705973,29.6436335 186.297953,27.2617167 186.759322,23.0561571 C187.090471,20.0365954 185.49976,17.0332542 182.96637,15.9669429 C180.734835,15.0280345 178.403601,15.5272528 176.079575,15.3944955 C176.079423,20.189668 176.079423,24.8517681 176.079423,29.6450333 Z" id="Shape"></path>
                <path d="M62.0198116,15.4495588 L51.0659761,15.4495588 L51.0659761,10 L70.8685582,10 C70.8685582,11.0281523 70.8159816,12.0613468 70.8839579,13.0872073 C70.9464899,14.0328507 70.6534295,14.76336 70.0458423,15.5057871 C66.752334,19.5316093 63.5107802,23.597922 60.2522712,27.6510943 C60.0774304,27.8685205 59.911145,28.0925168 59.6387729,28.4457771 L71,28.4457771 L71,34 L51.0057774,34 C51.0057774,32.4829062 50.9832223,30.9664235 51.0272436,29.4516215 C51.0348656,29.1915657 51.3008601,28.9206616 51.4883006,28.6862752 C54.8312744,24.5041445 58.1809371,20.3273616 61.5271776,16.1476757 C61.6665524,15.9733374 61.7853944,15.7829558 62.0198116,15.4495588 Z" id="Shape"></path>
                <path d="M73.0003206,15.4449558 C73.0003206,13.7255523 72.9987688,12.1494452 73.0024932,10.5731854 C73.0028035,10.3993355 73.0321336,10.2254855 73.0529284,10 L92.7478161,10 C92.7478161,11.464892 92.7641105,12.9062577 92.7304353,14.3465541 C92.7253142,14.5636374 92.5078995,14.7923311 92.3520933,14.9871102 C88.9608272,19.2236714 85.5641294,23.4559551 82.1703802,27.6905302 C82.00278,27.8996696 81.8531813,28.1230164 81.5921594,28.4807989 L82.5808455,28.4807989 C85.7866653,28.4807989 88.9926401,28.493937 92.1984599,28.4693413 C92.7940613,28.4647584 93.016442,28.6088185 92.9990613,29.2337923 C92.9554542,30.8056218 92.984629,32.3794374 92.984629,34 L73.0194083,34 C73.0194083,32.4301564 73.0066831,30.8865888 73.0355477,29.3437852 C73.0391169,29.1505337 73.2452031,28.9484216 73.3856459,28.772433 C76.6422112,24.690473 79.9029666,20.6118738 83.1623253,16.5320526 C83.4112425,16.2202532 83.6548836,15.904329 84.0150689,15.4448031 C80.2563236,15.4449558 76.6842665,15.4449558 73.0003206,15.4449558 Z" id="Shape"></path>
            </g>
        </g>
    </g>
</svg>