<?xml version="1.0" encoding="UTF-8"?>
<svg width="123px" height="36px" viewBox="0 0 123 36" version="1.1" xmlns="http://www.w3.org/2000/svg" xmlns:xlink="http://www.w3.org/1999/xlink">
    <!-- Generator: Sketch 64 (93537) - https://sketch.com -->
    <title>lifehacker_logo</title>
    <desc>Created with Sketch.</desc>
    <g id="Page-4" stroke="none" stroke-width="1" fill="none" fill-rule="evenodd">
        <g id="Desktop-HD" transform="translate(-1147.000000, -10292.000000)" fill="#0D0C22" fill-rule="nonzero">
            <g id="lifehacker_logo" transform="translate(1147.000000, 10292.000000)">
                <path d="M14.022916,36 C14.0168802,26.5850384 13.9743429,17.1697713 14.0232033,7.75511522 C14.0413104,4.27319558 16.8116924,1.19027453 20.4954758,0.258463105 C20.7889253,0.184223703 21.0772014,0.0864598804 21.3677768,0 L23,0 L23,5.63883397 C22.7304058,5.69199305 22.5007622,5.74545764 22.2688192,5.78211908 C20.0620557,6.13131923 19.3811723,6.97514322 19.3814597,9.36669072 L19.3814597,13.4791871 L22.9634984,13.4791871 L22.9634984,19.2545848 L19.3277133,19.2545848 L19.3277133,36 L14.022916,36 Z" id="Fill-7"></path>
                <path d="M33.2177581,16.7359806 C32.9917417,15.6973983 33.6513405,14.5741656 32.5123409,13.9560644 C32.1971481,13.7849169 31.5092587,13.8704906 31.2481867,14.1136678 C30.4499031,14.8567437 30.8401273,15.8282214 30.8336697,16.7359806 L33.2177581,16.7359806 Z M30.7850839,22.537759 C30.7850839,23.0690552 30.7740137,23.4276646 30.7872363,23.7856585 C30.8275196,24.8947315 31.2162063,25.29582 32.3207652,25.3090564 C33.8029407,25.326602 35.2854236,25.3133658 36.830945,25.3133658 L36.830945,30.8892048 C34.6319748,30.8892048 32.4213194,31.1788628 30.3204434,30.8214846 C27.1712818,30.2864946 25.0636407,27.4243907 25.0288926,24.2144509 C24.9947595,21.0836206 24.9855344,17.9518669 25.0307376,14.8213444 C25.0857811,10.9997677 28.1605263,8.01207343 31.9735918,8.00003414 C35.7777394,7.98837134 38.8709351,10.9665232 38.9742569,14.7782498 C39.01577,16.3062649 38.9994722,17.8364346 38.9782544,19.3653732 C38.9515014,21.2892439 37.7568435,22.5002051 35.8413931,22.5319105 C34.2119227,22.5589986 32.5815297,22.537759 30.7850839,22.537759 L30.7850839,22.537759 Z" id="Fill-9"></path>
                <path d="M88.9196268,17.4635369 C90.2435067,15.1615893 91.5932492,12.8752677 92.8763235,10.5475829 C93.2533433,9.86309591 93.67864,9.59928959 94.4157253,9.64739364 C95.4623002,9.71571978 96.5154843,9.66485818 97.7068901,9.66485818 C97.5178054,10.0524482 97.3994119,10.3340254 97.2494087,10.5950742 C95.6381662,13.405638 94.0384181,16.224168 92.3932668,19.0120586 C92.0556157,19.5840985 92.0636618,19.9870083 92.3832092,20.5639507 C94.0918677,23.6490445 95.7551228,26.7632461 97.4315966,29.8682558 C97.5974049,30.1755702 97.748845,30.4920765 98,30.9881304 C96.5985322,30.9881304 95.3289639,31.0313322 94.0657176,30.952895 C93.7996198,30.936656 93.4866818,30.5184265 93.3168505,30.2095801 C91.8254382,27.4970627 90.3621875,24.7676937 88.7147372,22.0551764 L88.7147372,30.9170468 L85,30.9170468 L85,1 L88.640023,1 L88.640023,17.3881637 L88.9196268,17.4635369 Z" id="Fill-11"></path>
                <path d="M53.9560314,30 L50.138909,30 C50.1193832,29.5958439 50.0854386,29.2208569 50.0851381,28.8455691 C50.0815335,24.4383437 50.085739,20.0311185 50.0815335,15.6232917 C50.0800314,13.9305876 49.6291383,13.4882411 47.9337075,13.4834297 C47.2683319,13.4813247 46.6032568,13.483129 45.8354465,13.483129 L45.8354465,29.9579004 L42,29.9579004 L42,1 L45.8015019,1 L45.8015019,9.60034425 C46.7717786,9.60034425 47.6453279,9.59222505 48.5185769,9.60184781 C51.4050749,9.63372322 53.8079365,11.5627864 53.9064661,14.4345798 C54.0824978,19.5755408 53.9560314,24.7270266 53.9560314,30" id="Fill-13"></path>
                <path d="M63.1351446,15.7800167 C63.1351446,15.1955165 63.1834302,14.7731121 63.1261473,14.3650367 C62.9617964,13.19932 62.5569176,12.8581129 61.3668736,12.8500529 C59.77435,12.8393061 58.1815265,12.8473662 56.511626,12.8473662 L56.511626,9.11050549 C58.7327616,9.11050549 61.0288747,8.81497169 63.2077229,9.19050858 C65.5635182,9.59679292 66.6713867,11.6028405 66.8606302,13.8554648 C67.0639693,16.273767 66.9664985,18.7171449 66.9910911,21.1500747 C67.0030875,22.3492255 67.0039872,23.5489733 66.9874922,24.7484226 C66.9808942,25.2045596 66.9590007,25.6699507 66.8624296,26.1141469 C66.3117943,28.6437969 63.3939672,30.2925172 60.0988529,29.9566834 C57.1144457,29.6524925 55.0426655,27.6282352 55.007576,24.9663414 C54.9922805,23.802416 55.0048767,22.6381919 55.0048767,21.4739678 C55.0054766,18.1171218 56.9824851,16.0077867 60.3771697,15.7883752 C61.255007,15.7313581 62.1397423,15.7800167 63.1351446,15.7800167 Z M62.8730357,19.2614718 C61.8251491,19.2614718 60.8747334,19.1683339 59.9513097,19.286846 C58.9796004,19.4116269 58.3719822,19.9755293 58.4670537,21.0931843 C58.5321343,21.8603781 58.4904467,22.6383187 58.4766509,23.4105873 C58.4619553,24.2261412 58.3692829,25.0619943 59.3427917,25.4623083 C60.3516899,25.8772497 61.3554896,25.8951608 62.2723153,25.2787191 C62.5539311,25.0894581 62.8355468,24.6727255 62.8463436,24.3509221 C62.9036265,22.6759321 62.8730357,20.9979569 62.8730357,19.2614718 Z" id="Fill-15"></path>
                <path d="M102.940427,17.384599 L106.960627,17.384599 C106.988742,17.1681185 107.027741,17.0019822 107.028648,16.8358458 C107.03288,16.1375404 107.060089,15.4371619 107.014741,14.7412255 C106.945511,13.6786641 106.131978,12.8927002 105.103499,12.8308062 C104.062322,12.7683201 103.064377,13.5406613 102.958566,14.6209914 C102.871197,15.5117899 102.940427,16.4170995 102.940427,17.384599 M102.918963,21.2679239 C102.918963,22.3059055 102.889033,23.1460636 102.925614,23.9832602 C102.982147,25.2785902 103.787819,26.0319784 105.115894,26.0695885 C105.723247,26.0867648 106.331507,26.0734383 106.939465,26.0734383 C107.542888,26.0737344 108.146008,26.0734383 108.836498,26.0734383 L108.836498,30 C106.970603,29.8868734 105.058152,29.9923003 103.254231,29.6076104 C100.72052,29.0668531 99.0505257,26.7385758 99.0242243,24.1775301 C98.9918765,21.0606237 98.9924811,17.9434211 99.0227127,14.8262186 C99.0544559,11.5603522 101.66556,9.01825965 104.947806,9.00009693 C108.236098,8.9821302 110.860202,11.4638095 110.970245,14.742114 C111.018011,16.1766312 111.000175,17.61411 110.972966,19.0498118 C110.94606,20.4869944 110.170619,21.2436401 108.69834,21.2622972 C106.813399,21.2859886 104.927249,21.2679239 102.918963,21.2679239" id="Fill-17"></path>
                <path d="M78.0953506,24.6656277 L82,24.6656277 C81.9390089,25.2774934 81.9390089,25.847641 81.8185515,26.3905945 C81.199187,29.1779829 78.6540289,31.1001066 75.7670158,30.9959658 C72.9147677,30.892752 70.3507023,28.7608017 70.1796224,25.887505 C69.9573098,22.141218 69.9521256,18.367737 70.1049082,14.6165057 C70.2387837,11.3356076 72.8885415,8.99413957 76.032632,9 C79.1727581,9.00557343 81.6679035,11.368982 81.9673697,14.6455539 C82.0167725,15.1832541 81.9746887,15.7299159 81.9746887,16.3587779 L77.9959351,16.3587779 C77.9959351,15.8179875 78.0340545,15.3130437 77.9880062,14.8161347 C77.8922503,13.7830704 77.0219075,13.001242 76.0213487,12.9984608 C75.0226196,12.9956796 74.0720735,13.7750359 74.0583505,14.8081001 C74.0110824,18.2759572 74.013827,21.7453595 74.054691,25.2132166 C74.0659744,26.1665528 74.8902689,26.8980105 75.8139789,26.9888633 C76.7425683,27.0800251 77.627244,26.5154399 77.9175616,25.6186549 C78.0059987,25.3454785 78.0261257,25.0500524 78.0953506,24.6656277" id="Fill-19"></path>
                <path d="M123,9.00885372 L123,12.8749024 C122.174206,12.8749024 121.336833,12.8671104 120.499171,12.8767006 C118.74338,12.8967801 117.765337,13.8923626 117.760416,15.7115033 C117.748838,20.0699489 117.756943,24.428694 117.756653,28.7874393 C117.756653,29.1695487 117.756943,29.5516582 117.756943,30 L114.092534,30 C114.062141,29.8294742 114.018724,29.6964103 114.018435,29.5636459 C114.016409,24.7445712 113.967492,19.9245974 114.037828,15.1064218 C114.087034,11.768733 116.772531,9.1002603 120.000164,9.01304942 C120.98255,8.98637669 121.966382,9.00885372 123,9.00885372" id="Fill-21"></path>
                <polygon id="Fill-23" points="0 31 5 31 5 1 0 1"></polygon>
                <polygon id="Fill-25" points="8 31 13 31 13 9 8 9"></polygon>
                <path d="M12.9995481,6.04321535 C12.9710021,7.68452053 11.5818712,9.02833528 9.94327383,8.99954587 C8.28357728,8.97075648 6.97915322,7.61765483 7.00025238,5.94756026 C7.02135152,4.27963263 8.37169727,2.97017942 10.0388406,3.00051663 C11.7007091,3.03085384 13.028094,4.39509978 12.9995481,6.04321535" id="Fill-26"></path>
            </g>
        </g>
    </g>
</svg>