<?xml version="1.0" encoding="UTF-8"?>
<svg width="141px" height="35px" viewBox="0 0 141 35" version="1.1" xmlns="http://www.w3.org/2000/svg" xmlns:xlink="http://www.w3.org/1999/xlink">
    <!-- Generator: Sketch 64 (93537) - https://sketch.com -->
    <title>tnw_logo</title>
    <desc>Created with Sketch.</desc>
    <g id="Page-4" stroke="none" stroke-width="1" fill="none" fill-rule="evenodd">
        <g id="Desktop-HD" transform="translate(-829.000000, -10293.000000)" fill="#0D0C22" fill-rule="nonzero">
            <path d="M901.636364,10328 L888.818182,10328 L888.818182,10316.625 C888.818182,10315.0938 888.177273,10313.7812 887.322727,10312.6875 L882.409091,10307.6562 C881.340909,10306.7812 880.059091,10306.125 878.563636,10306.125 L876,10306.125 L876,10328 L863.181818,10328 L863.181818,10293 L881.768182,10293 C884.545455,10293 887.322727,10294.0938 889.245455,10296.2812 L898.431818,10305.6875 C900.568182,10307.6562 901.636364,10310.5 901.636364,10313.3438 L901.636364,10328 Z M957.181818,10293 L957.181818,10304.375 C957.181818,10305.9062 956.540909,10307.2188 955.686364,10308.3125 L950.772727,10313.3438 C949.704545,10314.4375 948.422727,10314.875 946.927273,10314.875 L941.586364,10314.875 C943.295455,10312.9062 944.363636,10310.2812 944.363636,10307.6562 L944.363636,10293 L931.545455,10293 L931.545455,10304.375 C931.545455,10305.9062 930.904545,10307.2188 930.05,10308.3125 L925.136364,10313.3438 C924.068182,10314.4375 922.786364,10314.875 921.290909,10314.875 L918.727273,10314.875 L918.727273,10293 L905.909091,10293 L905.909091,10328 L924.495455,10328 C927.272727,10328 930.05,10326.9062 931.972727,10324.7188 L937.954545,10318.5938 L937.954545,10328 L950.131818,10328 C952.909091,10328 955.686364,10326.9062 957.609091,10324.7188 L966.795455,10315.3125 C968.931818,10313.3438 970,10310.5 970,10307.6562 L970,10293 L957.181818,10293 Z M858.909091,10293 L829,10293 L829,10306.125 L837.545455,10306.125 L837.545455,10328 L850.363636,10328 L850.363636,10306.125 L858.909091,10306.125 L858.909091,10293 Z" id="tnw_logo"></path>
        </g>
    </g>
</svg>