<?xml version="1.0" encoding="UTF-8"?>
<svg width="168px" height="35px" viewBox="0 0 168 35" version="1.1" xmlns="http://www.w3.org/2000/svg" xmlns:xlink="http://www.w3.org/1999/xlink">
    <!-- Generator: Sketch 64 (93537) - https://sketch.com -->
    <title>wired_logo</title>
    <desc>Created with Sketch.</desc>
    <g id="Page-4" stroke="none" stroke-width="1" fill="none" fill-rule="evenodd">
        <g id="Desktop-HD" transform="translate(-388.000000, -10293.000000)" fill="#0D0C22" fill-rule="nonzero">
            <path d="M388,10293 L421.616756,10293 L421.616756,10328 L388,10328 L388,10293 L388,10293 Z M476.469348,10303.2386 C477.471711,10304.1002 477.261136,10305.6907 477.305373,10306.8995 C477.246727,10308.0434 477.225782,10309.8745 475.730308,10309.9641 C472.948809,10310.1092 470.154744,10309.9854 467.369056,10310.0238 L467.369056,10309.6016 C467.24756,10309.6027 467.126078,10309.6041 467.004613,10309.6058 L467.004613,10302.6527 C467.004613,10302.6527 472.9907,10302.5588 475.97327,10302.7167 C476.179923,10302.866 476.34209,10303.0424 476.469348,10303.2386 Z M395.172849,10299.1458 C395.140202,10298.9297 395.107661,10298.7137 395.075227,10298.4976 C393.542052,10298.4933 392.008877,10298.5018 390.475701,10298.4933 C390.521251,10298.7094 390.566659,10298.9256 390.61193,10299.1417 C390.600033,10299.1417 390.588135,10299.1416 390.576237,10299.1416 C392.075901,10306.2568 393.420571,10313.4104 394.865777,10320.5385 C394.900143,10320.6497 394.927263,10320.7655 394.950236,10320.8841 C394.967017,10320.9984 394.984976,10321.1124 395.006615,10321.2245 C395.109435,10321.9261 395.171632,10322.6635 395.77898,10323.0909 C397.245131,10323.33 398.748984,10323.2702 400.227702,10323.1678 C401.031991,10323.1934 401.224685,10322.2287 401.371301,10321.6098 C402.38085,10316.5348 403.47837,10311.4769 404.48373,10306.4019 C404.563322,10305.9324 404.705747,10305.4757 404.923576,10305.0531 C406.176087,10310.4995 407.210772,10315.9928 408.375315,10321.4562 C408.534497,10322.0367 408.568009,10322.7537 409.129336,10323.108 C410.729535,10323.3044 412.371625,10323.3214 413.967635,10323.0952 C414.541529,10322.7495 414.570852,10322.0367 414.717466,10321.4477 C416.196185,10314.0166 417.574367,10306.5556 419.136865,10299.1416 C419.057872,10299.142 418.97889,10299.1425 418.899922,10299.1429 C418.945239,10298.9263 418.990705,10298.7098 419.03633,10298.4933 C417.624636,10298.5018 416.217129,10298.4976 414.809625,10298.4976 C413.686971,10304.964 412.786336,10311.4732 411.546391,10317.9183 C410.151452,10312.4506 409.217305,10306.8506 408.002493,10301.3317 C407.726019,10300.3884 407.851689,10299.014 406.83795,10298.536 C405.598005,10298.4591 404.349682,10298.4549 403.109736,10298.536 C402.405984,10298.5957 402.246802,10299.4451 402.108565,10300.0085 C400.985911,10305.4805 399.808802,10310.9396 398.711283,10316.4116 C398.59818,10316.9195 398.430619,10317.4061 398.242114,10317.8884 C397.326777,10312.6495 396.450136,10307.3994 395.6324,10302.1426 C395.477986,10301.1439 395.325728,10300.145 395.175763,10299.1458 C395.174792,10299.1458 395.173822,10299.1458 395.172849,10299.1458 Z M454.982172,10293 L488.598928,10293 L488.598928,10328 L454.982172,10328 L454.982172,10293 Z M521.964343,10293 L556,10293 L556,10328 L521.964343,10328 L521.964343,10293 Z M430.091111,10298.2596 C435.507492,10298.2468 440.919686,10298.2468 446.331879,10298.2596 C446.352824,10299.6895 446.352824,10301.1236 446.336067,10302.5578 C444.421693,10302.5706 442.507318,10302.562 440.592944,10302.562 C440.601322,10307.8505 440.601322,10313.1431 440.592944,10318.4316 C442.507318,10318.4316 444.421693,10318.423 446.340257,10318.4401 C446.348635,10319.87 446.352824,10321.3041 446.331879,10322.734 C440.919686,10322.7468 435.507492,10322.7468 430.0953,10322.734 C430.074354,10321.2998 430.074354,10319.87 430.091111,10318.4358 C432.005486,10318.423 433.91986,10318.4316 435.834235,10318.4316 C435.825857,10313.1431 435.825857,10307.8505 435.834235,10302.562 C433.91986,10302.562 432.005486,10302.5706 430.091111,10302.5578 C430.074354,10301.1236 430.074354,10299.6938 430.091111,10298.2596 Z M494.49914,10298.266 C501.134522,10298.2447 507.769904,10298.2447 514.409475,10298.266 C514.417853,10300.9209 514.409475,10303.5758 514.413664,10306.2306 L510.103179,10306.2306 C510.09899,10305.0056 510.09899,10303.7849 510.107368,10302.5642 C507.510186,10302.5684 504.917192,10302.5684 502.32001,10302.5642 C502.311632,10304.3995 502.315821,10306.2349 502.315821,10308.0703 L508.599327,10308.0703 L508.599327,10312.155 L502.315821,10312.155 C502.324199,10314.2508 502.294875,10316.3508 502.336766,10318.4465 C505.000972,10318.4166 507.665178,10318.438 510.329386,10318.4337 C510.325196,10317.038 510.325196,10315.6422 510.329386,10314.2465 C511.791348,10314.2294 513.25331,10314.2294 514.715272,10314.2422 C514.715272,10317.0721 514.736217,10319.902 514.702705,10322.7319 C507.966787,10322.7532 501.235058,10322.7532 494.49914,10322.7319 C494.478194,10321.302 494.482384,10319.8721 494.49495,10318.4422 C495.563146,10318.4294 496.627153,10318.4294 497.695349,10318.438 C497.716295,10313.1453 497.716295,10307.8526 497.695349,10302.5599 C496.627153,10302.5684 495.558958,10302.5684 494.490762,10302.5471 C494.482384,10301.1215 494.482384,10299.6916 494.49914,10298.266 Z M462.710884,10299.1269 L462.710884,10323.1318 L467.369056,10323.1318 L467.369056,10313.7415 C469.895025,10313.7501 472.420995,10313.7287 474.946964,10313.7458 C475.868544,10313.6562 476.966064,10314.3263 476.945119,10315.3592 C477.062411,10317.9543 477.280239,10320.5409 477.439422,10323.1318 C478.91814,10323.1318 480.392669,10323.1318 481.871387,10323.136 C481.452487,10320.1995 481.967735,10317.1647 481.155068,10314.2879 C480.736167,10312.7812 479.102456,10312.444 477.828999,10312.0684 C478.775714,10311.5562 479.990524,10311.5092 480.677521,10310.5702 C481.674504,10309.2812 481.745717,10307.561 481.749907,10305.9903 C481.733151,10304.1549 481.77504,10302.136 480.631443,10300.5952 C479.71824,10299.3147 478.009126,10299.1269 476.576486,10299.1269 C471.956015,10299.1226 467.331355,10299.1269 462.710884,10299.1269 Z M529.693055,10299.1302 L529.693055,10323.1351 C533.609774,10323.1266 537.522304,10323.1522 541.439023,10323.1223 C543.851889,10323.0753 546.66271,10322.6186 548.116295,10320.4162 C549.812841,10317.6503 549.557311,10314.2656 549.854732,10311.1455 C549.553123,10308.0211 549.821219,10304.6235 548.116295,10301.8491 C546.763247,10299.7876 544.174442,10299.2455 541.899813,10299.1601 C537.83229,10299.0918 533.760578,10299.1473 529.693055,10299.1302 Z M533.986784,10302.6272 C536.512754,10302.64 539.038723,10302.6101 541.564693,10302.6358 C542.691534,10302.6229 543.977559,10303.1821 544.333624,10304.3601 C545.125346,10306.665 544.790226,10309.1662 544.878194,10311.565 C544.811171,10313.4815 545.008054,10315.5047 544.207954,10317.3016 C543.671762,10318.4626 542.285201,10318.7699 541.141602,10318.7486 C538.753871,10318.7486 536.370327,10318.74 533.986784,10318.7443 L533.986784,10302.6272 Z" id="wired_logo"></path>
        </g>
    </g>
</svg>